<svg width="388" height="91" viewBox="0 0 388 91" fill="none" xmlns="http://www.w3.org/2000/svg">
<circle cx="44.7146" cy="45.7829" r="44.7146" fill="black"/>
<path fill-rule="evenodd" clip-rule="evenodd" d="M110.567 11.7545V0.497559H167.421V11.7545H145.475V78.3867H132.74V11.7545H110.567ZM170.521 27.6735C174.463 22.7462 180.982 20.2825 190.079 20.2825C199.175 20.2825 205.656 22.7462 209.522 27.6735C213.464 32.6008 215.435 39.9917 215.435 49.8463C215.435 59.7009 213.54 67.1297 209.75 72.1328C205.96 77.1359 199.403 79.6375 190.079 79.6375C180.755 79.6375 174.198 77.1359 170.407 72.1328C166.617 67.1297 164.722 59.7009 164.722 49.8463C164.722 39.9917 166.655 32.6008 170.521 27.6735ZM179.845 64.6282C181.589 67.6604 185 69.1765 190.079 69.1765C195.158 69.1765 198.569 67.6604 200.312 64.6282C202.056 61.596 202.927 56.6308 202.927 49.7326C202.927 42.8344 201.98 37.945 200.085 35.0644C198.266 32.1838 194.93 30.7436 190.079 30.7436C185.227 30.7436 181.854 32.1838 179.959 35.0644C178.139 37.945 177.23 42.8344 177.23 49.7326C177.23 56.6308 178.102 61.596 179.845 64.6282ZM227.747 78.3867H240.141V55.1905L247.532 54.3946L261.404 78.3867H275.39L258.106 48.1407L274.48 21.5333H260.608L247.19 43.7061L240.141 44.3884V0.497577H227.747V78.3867ZM279.258 21.5333H291.425L303.478 67.812H306.548L318.601 21.5333H330.881L312.555 90.4975H300.553L303.933 78.3867H294.154L279.258 21.5333ZM362.082 20.2825C352.986 20.2825 346.467 22.7462 342.525 27.6735C338.659 32.6008 336.726 39.9917 336.726 49.8463C336.726 59.7009 338.621 67.1297 342.411 72.1328C346.201 77.1359 352.758 79.6375 362.082 79.6375C371.406 79.6375 377.963 77.1359 381.754 72.1328C385.544 67.1297 387.439 59.7009 387.439 49.8463C387.439 39.9917 385.468 32.6008 381.526 27.6735C377.66 22.7462 371.179 20.2825 362.082 20.2825ZM362.082 69.1765C357.003 69.1765 353.592 67.6604 351.849 64.6282C350.105 61.596 349.233 56.6308 349.233 49.7326C349.233 42.8344 350.143 37.945 351.962 35.0644C353.857 32.1838 357.231 30.7436 362.082 30.7436C366.934 30.7436 370.269 32.1838 372.088 35.0644C373.984 37.945 374.931 42.8344 374.931 49.7326C374.931 56.6308 374.059 61.596 372.316 64.6282C370.572 67.6604 367.161 69.1765 362.082 69.1765Z" fill="black"/>
</svg>
