<svg width="288" height="90" viewBox="0 0 288 90" fill="none" xmlns="http://www.w3.org/2000/svg">
<path d="M154.661 70.8262L135.09 46.3441L153.416 24.6975H141.314L124.992 45.3067V24.6975H115.172V70.8262H124.992V56.6487L128.589 52.3609L142.559 70.8262H154.661Z" fill="#1D1F1F"/>
<path d="M177.751 71.6561C191.721 71.6561 201.887 61.6973 201.887 47.7964C201.887 33.8956 191.721 23.9368 177.751 23.9368C163.85 23.9368 153.684 33.8956 153.684 47.7964C153.684 61.6973 163.85 71.6561 177.751 71.6561ZM177.751 62.9421C169.245 62.9421 163.781 56.3721 163.781 47.7964C163.781 39.1516 169.245 32.6507 177.751 32.6507C186.258 32.6507 191.79 39.1516 191.79 47.7964C191.79 56.3721 186.258 62.9421 177.751 62.9421Z" fill="#1D1F1F"/>
<path d="M233.814 70.8262C242.597 70.8262 247.231 65.2935 247.231 58.3777C247.231 52.5684 243.289 47.7964 238.379 47.0357C242.736 46.1366 246.332 42.2638 246.332 36.4544C246.332 30.2993 241.837 24.6975 233.053 24.6975H208.779V70.8262H233.814ZM230.91 43.1628H218.599V33.1348H230.91C234.229 33.1348 236.304 35.2788 236.304 38.1834C236.304 41.0881 234.229 43.1628 230.91 43.1628ZM231.255 62.3197H218.599V51.6001H231.255C235.128 51.6001 237.203 54.0898 237.203 56.9945C237.203 60.3141 234.99 62.3197 231.255 62.3197Z" fill="#1D1F1F"/>
<path d="M287.28 70.8262V62.1814H264.457V51.7385H286.796V43.0937H264.457V33.3423H287.28V24.6975H254.637V70.8262H287.28Z" fill="#1D1F1F"/>
<path d="M87.4121 23.5783V12.4601H49.361V0H37.1885V12.4601H0V23.5783H37.2843V33.6422H9.00958V78.4026H20.5112V44.7604H37.2843V90H49.1693V44.7604H67.476V65.8466C67.476 66.901 66.9968 67.3802 65.4633 67.3802C63.9297 67.3802 58.2748 67.3802 53.4824 67.1885C55.1118 70.2556 56.8371 75.1438 57.3163 78.4026C64.7923 78.4026 70.2556 78.2109 74.2812 76.4856C78.2109 74.7604 79.361 71.5016 79.361 66.0383V33.6422H49.1693V23.5783H87.4121Z" fill="#1D1F1F"/>
</svg>
